<svg width="256" height="256" viewBox="0 0 256 256" fill="none" xmlns="http://www.w3.org/2000/svg">
  <defs>
    <linearGradient id="bg" x1="36" y1="24" x2="220" y2="232" gradientUnits="userSpaceOnUse">
      <stop stop-color="#8B7CFF"/>
      <stop offset="0.5" stop-color="#6366F1"/>
      <stop offset="1" stop-color="#2DD4BF"/>
    </linearGradient>
    <linearGradient id="strokeA" x1="78" y1="62" x2="171" y2="182" gradientUnits="userSpaceOnUse">
      <stop stop-color="white"/>
      <stop offset="1" stop-color="#E2E8F0"/>
    </linearGradient>
    <linearGradient id="strokeB" x1="181" y1="74" x2="93" y2="194" gradientUnits="userSpaceOnUse">
      <stop stop-color="#F8FAFC"/>
      <stop offset="1" stop-color="#C7D2FE"/>
    </linearGradient>
    <filter id="shadow" x="16" y="16" width="224" height="224" filterUnits="userSpaceOnUse" color-interpolation-filters="sRGB">
      <feFlood flood-opacity="0" result="BackgroundImageFix"/>
      <feColorMatrix in="SourceAlpha" type="matrix" values="0 0 0 0 0 0 0 0 0 0 0 0 0 0 0 0 0 0 127 0" result="hardAlpha"/>
      <feOffset dy="14"/>
      <feGaussianBlur stdDeviation="12"/>
      <feComposite in2="hardAlpha" operator="out"/>
      <feColorMatrix type="matrix" values="0 0 0 0 0.0588235 0 0 0 0 0.0941176 0 0 0 0 0.254902 0 0 0 0.24 0"/>
      <feBlend mode="normal" in2="BackgroundImageFix" result="effect1_dropShadow_0_1"/>
      <feBlend mode="normal" in="SourceGraphic" in2="effect1_dropShadow_0_1" result="shape"/>
    </filter>
  </defs>

  <g filter="url(#shadow)">
    <rect x="32" y="28" width="192" height="192" rx="52" fill="url(#bg)"/>
    <rect x="32" y="28" width="192" height="192" rx="52" fill="white" fill-opacity="0.06"/>
    <path d="M168 68C153.7 58.8 136.8 54 117.5 54C82.9 54 62 71.6 62 98.4C62 126.8 86.6 138.2 111.9 145.5C134.1 151.9 150 157.1 150 173.3C150 188.4 137.3 198 116 198C96.4 198 79.5 191.7 64.5 180.7" stroke="url(#strokeA)" stroke-width="20" stroke-linecap="round"/>
    <path d="M88 188C102.3 197.2 119.2 202 138.5 202C173.1 202 194 184.4 194 157.6C194 129.2 169.4 117.8 144.1 110.5C121.9 104.1 106 98.9 106 82.7C106 67.6 118.7 58 140 58C159.6 58 176.5 64.3 191.5 75.3" stroke="url(#strokeB)" stroke-width="20" stroke-linecap="round"/>
    <circle cx="182" cy="77" r="10" fill="white"/>
    <circle cx="182" cy="77" r="4" fill="#6366F1"/>
  </g>
</svg>
